<svg xmlns="http://www.w3.org/2000/svg" xmlns:xlink="http://www.w3.org/1999/xlink" width="412" zoomAndPan="magnify" viewBox="0 0 309 68.249996" height="91" preserveAspectRatio="xMidYMid meet" version="1.0"><defs><g/><clipPath id="dadfafa4c8"><path d="M 67.90625 56.671875 L 275.976562 56.671875 L 275.976562 61.113281 L 67.90625 61.113281 Z M 67.90625 56.671875 " clip-rule="nonzero"/></clipPath><clipPath id="e01d7a79c8"><path d="M 273.921875 56.8125 L 92.609375 56.8125 C 84.082031 56.8125 75.601562 56.609375 70.195312 56.8125 C 70.121094 56.816406 70.042969 56.8125 69.96875 56.8125 C 67.292969 56.8125 67.285156 60.972656 69.96875 60.972656 L 251.773438 60.972656 C 260.300781 60.972656 268.285156 61.175781 273.691406 60.972656 C 273.769531 60.96875 273.84375 60.972656 273.921875 60.972656 C 276.59375 60.972656 276.601562 56.8125 273.921875 56.8125 Z M 273.921875 56.8125 " clip-rule="nonzero"/></clipPath><clipPath id="6e57ea0d36"><path d="M 0.90625 0.671875 L 208.976562 0.671875 L 208.976562 5.113281 L 0.90625 5.113281 Z M 0.90625 0.671875 " clip-rule="nonzero"/></clipPath><clipPath id="2b6557fd46"><path d="M 206.921875 0.8125 L 25.609375 0.8125 C 17.082031 0.8125 8.601562 0.609375 3.195312 0.8125 C 3.121094 0.816406 3.042969 0.8125 2.96875 0.8125 C 0.292969 0.8125 0.285156 4.972656 2.96875 4.972656 L 184.773438 4.972656 C 193.300781 4.972656 201.285156 5.175781 206.691406 4.972656 C 206.769531 4.96875 206.84375 4.972656 206.921875 4.972656 C 209.59375 4.972656 209.601562 0.8125 206.921875 0.8125 Z M 206.921875 0.8125 " clip-rule="nonzero"/></clipPath><clipPath id="11599925cc"><rect x="0" width="209" y="0" height="6"/></clipPath></defs><path fill="#ffffff" d="M 89.4375 23.71875 C 90.800781 23.945312 92.171875 24.347656 93.527344 24.300781 C 93.976562 24.289062 93.890625 24.894531 94.199219 24.59375 C 94.585938 24.214844 94.566406 24.640625 94.726562 24.808594 C 94.808594 24.894531 95.046875 24.828125 95.214844 24.832031 C 95.054688 24.539062 94.929688 24.21875 94.726562 23.960938 C 94.570312 23.761719 94.109375 23.554688 94.132812 23.5 C 94.304688 23.109375 94.703125 23.273438 95.027344 23.222656 C 97.964844 22.738281 100.570312 23.699219 103.078125 25.078125 C 104.304688 25.75 104.082031 26.972656 104.128906 28.050781 C 104.285156 31.875 104.378906 35.699219 104.554688 39.519531 C 104.59375 40.300781 104.09375 40.070312 103.722656 40.164062 C 103.601562 40.191406 103.480469 40.230469 103.359375 40.265625 C 103.46875 40.316406 103.574219 40.386719 103.691406 40.414062 C 104.882812 40.667969 105.808594 41.257812 105.328125 42.601562 C 104.796875 44.085938 105.320312 45.566406 105.066406 47.027344 C 105.015625 47.320312 104.90625 47.507812 104.601562 47.574219 C 101.546875 48.21875 98.492188 48.867188 95.441406 49.519531 C 95.351562 49.539062 95.222656 49.601562 95.203125 49.671875 C 93.761719 54.859375 90.003906 55.996094 85.585938 55.53125 C 82.855469 55.246094 80.976562 54 79.585938 51.769531 C 79.53125 51.683594 79.304688 51.628906 79.195312 51.664062 C 78.640625 51.859375 77.738281 51.511719 77.539062 52.132812 C 76.597656 55.0625 75.113281 57.550781 72.238281 58.894531 C 68.296875 60.734375 61.867188 60.140625 59.414062 55.355469 C 59.039062 54.625 58.503906 53.914062 58.367188 53.136719 C 58.148438 51.894531 57.285156 52.203125 56.542969 52.097656 C 56.449219 52.085938 56.378906 51.898438 56.304688 51.789062 C 56.28125 51.753906 56.285156 51.699219 56.277344 51.652344 C 56.234375 51.667969 56.179688 51.675781 56.144531 51.703125 C 55.699219 52.042969 55.671875 52.023438 55.476562 51.136719 C 55.464844 51.070312 55.457031 51.003906 55.445312 50.933594 C 55.242188 51.058594 55.042969 51.183594 54.84375 51.304688 C 54.890625 51.328125 54.941406 51.351562 54.992188 51.371094 C 54.976562 51.402344 54.960938 51.460938 54.941406 51.460938 C 54.550781 51.484375 54.652344 52.53125 54.488281 52.042969 C 53.824219 50.054688 52.152344 51.148438 51.027344 50.675781 C 50.480469 50.441406 50.015625 50.671875 49.511719 51.050781 C 47.996094 52.1875 46.484375 50.703125 44.949219 50.921875 C 44.789062 50.945312 44.621094 50.902344 44.453125 50.890625 C 43.984375 50.859375 43.511719 50.832031 43.042969 50.800781 C 43.425781 50.550781 43.808594 50.296875 44.191406 50.042969 C 44.242188 50.011719 44.28125 49.953125 44.324219 49.910156 C 44.261719 49.894531 44.199219 49.871094 44.136719 49.863281 C 42.65625 49.730469 41.179688 49.601562 39.703125 49.460938 C 39.5625 49.449219 39.429688 49.371094 39.292969 49.328125 C 39.433594 49.304688 39.578125 49.246094 39.714844 49.257812 C 42.738281 49.519531 45.765625 49.789062 48.792969 50.042969 C 49.25 50.082031 49.71875 50.070312 50.179688 50.054688 C 50.382812 50.046875 50.582031 49.976562 50.78125 49.929688 C 50.617188 49.925781 50.457031 49.925781 50.292969 49.917969 C 50.269531 49.914062 50.222656 49.875 50.222656 49.859375 C 50.304688 49.367188 50.308594 49.304688 49.410156 49.234375 C 46.605469 49.019531 43.785156 48.621094 41 48.761719 C 39.410156 48.84375 39.085938 48.128906 38.808594 47.042969 C 38.609375 46.246094 38.226562 46.050781 37.398438 46.003906 C 36.007812 45.921875 35.109375 46.171875 34.589844 47.664062 C 34.054688 49.210938 32.757812 49.9375 31.066406 49.785156 C 29.5625 49.648438 27.808594 50.375 26.796875 48.515625 C 26.675781 48.292969 26.71875 47.761719 26.292969 47.898438 C 26.113281 47.957031 26.070312 48.425781 25.96875 48.707031 C 25.300781 50.496094 24.667969 52.613281 22.589844 52.921875 C 20.292969 53.261719 17.65625 54.039062 15.820312 51.503906 C 14.980469 50.34375 15.011719 50.523438 13.886719 51.277344 C 12.769531 52.027344 11.339844 51.605469 10.054688 51.75 C 6.625 52.136719 5.816406 50.945312 4.804688 47.035156 C 4.65625 46.460938 4.09375 46.816406 3.777344 46.847656 C 3.152344 46.910156 3.003906 46.757812 2.976562 46.117188 C 2.886719 44.058594 3.042969 42 3.007812 39.953125 C 2.972656 37.773438 2.953125 35.597656 3.003906 33.417969 C 3.09375 29.460938 3.195312 25.5 3.300781 21.539062 C 3.339844 20.070312 5.003906 18.460938 6.71875 18.703125 C 10.613281 19.253906 14.074219 17.523438 17.71875 16.847656 C 24.292969 15.632812 30.808594 14.089844 37.335938 12.636719 C 38.152344 12.453125 38.558594 11.945312 37.988281 10.960938 C 37.539062 10.179688 37.566406 9.203125 38.160156 8.40625 C 38.511719 7.933594 38.425781 7.796875 37.867188 7.765625 C 37.429688 7.742188 37.203125 7.445312 37.117188 7.03125 C 37.355469 7.058594 37.605469 7.058594 37.835938 7.125 C 38.234375 7.238281 38.625 7.390625 39.015625 7.535156 C 39.820312 7.832031 40.496094 8.011719 40.289062 6.695312 C 40.179688 6.011719 40.347656 5.28125 40.210938 4.605469 C 39.898438 3.078125 40.539062 2.5 42 2.253906 C 43.558594 1.992188 45.132812 1.597656 46.597656 1 C 49.070312 -0.0078125 51.082031 1.289062 53.238281 2.015625 C 55.238281 2.691406 57.261719 3.273438 59.269531 3.917969 C 61.265625 4.5625 63.25 5.234375 65.238281 5.894531 C 66.539062 6.324219 67.84375 6.753906 69.144531 7.183594 C 69.832031 7.410156 70.523438 7.644531 71.21875 7.851562 C 71.460938 7.925781 71.640625 8.011719 71.542969 8.292969 C 71.53125 8.320312 71.269531 8.285156 71.132812 8.242188 C 68.890625 7.554688 66.660156 6.808594 64.398438 6.1875 C 62.011719 5.527344 59.609375 5.050781 57.074219 5.054688 C 55.753906 5.058594 54.582031 5.519531 53.316406 5.558594 C 53.238281 5.5625 53.164062 5.617188 53.085938 5.644531 C 53.1875 5.6875 53.289062 5.765625 53.390625 5.761719 C 53.738281 5.738281 54.082031 5.695312 54.429688 5.648438 C 54.789062 5.601562 55.148438 5.539062 55.511719 5.480469 C 55.152344 5.574219 54.796875 5.671875 54.4375 5.765625 C 53.984375 5.878906 53.535156 5.992188 53.082031 6.097656 C 53.027344 6.113281 52.925781 6.117188 52.914062 6.089844 C 52.835938 5.945312 52.78125 5.792969 52.722656 5.640625 C 52.738281 5.851562 52.699219 6.089844 52.789062 6.265625 C 52.855469 6.394531 53.078125 6.449219 53.238281 6.527344 C 53.28125 6.550781 53.355469 6.519531 53.398438 6.539062 C 53.421875 6.550781 53.4375 6.636719 53.417969 6.664062 C 53.15625 7.097656 53.71875 7.214844 53.757812 7.1875 C 54.445312 6.710938 55.238281 6.785156 56.003906 6.714844 C 56.019531 6.710938 56.054688 6.636719 56.050781 6.628906 C 56.015625 6.597656 55.972656 6.558594 55.929688 6.558594 C 55.71875 6.542969 55.503906 6.542969 55.289062 6.539062 C 55.3125 6.527344 55.335938 6.503906 55.355469 6.503906 C 55.753906 6.535156 56.25 6.058594 56.535156 6.558594 C 56.875 7.148438 57.257812 7.210938 57.824219 6.988281 C 60.191406 6.0625 62.457031 6.757812 64.742188 7.386719 C 66.746094 7.941406 68.6875 8.691406 70.675781 9.253906 C 71.398438 9.460938 72.25 9.511719 73.023438 9.753906 C 73.082031 9.773438 73.132812 9.816406 73.191406 9.847656 C 73.128906 9.847656 73.070312 9.859375 73.015625 9.84375 C 72.546875 9.734375 72.082031 9.617188 71.617188 9.507812 C 72.035156 9.707031 72.441406 9.941406 72.875 10.097656 C 73.707031 10.394531 74.679688 10.089844 75.453125 10.683594 C 75.289062 10.707031 75.121094 10.78125 74.96875 10.75 C 74.644531 10.6875 74.324219 10.570312 74.003906 10.476562 C 74.375 10.691406 74.730469 10.941406 75.125 11.109375 C 75.242188 11.160156 75.453125 10.988281 75.621094 10.917969 C 75.59375 10.855469 75.566406 10.792969 75.539062 10.734375 C 76.492188 11.160156 77.449219 11.589844 78.40625 12.011719 C 78.617188 12.105469 78.527344 12.152344 78.402344 12.242188 C 77.875 12.621094 77.261719 12.738281 76.640625 12.753906 C 76.050781 12.773438 76.046875 13.121094 76.167969 13.511719 C 76.8125 15.585938 77.476562 17.65625 78.140625 19.722656 C 78.21875 19.957031 78.242188 20.054688 77.917969 20.019531 C 71.875 19.429688 65.832031 18.832031 59.785156 18.289062 C 58.976562 18.214844 58.144531 18.429688 57.320312 18.5 C 57.273438 18.503906 57.179688 18.453125 57.175781 18.421875 C 56.6875 15.050781 56.199219 11.679688 55.726562 8.308594 C 55.691406 8.0625 55.726562 7.804688 55.757812 7.554688 C 55.78125 7.367188 55.851562 7.1875 55.898438 7.003906 C 55.867188 7.011719 55.820312 7.011719 55.800781 7.03125 C 55.617188 7.265625 55.191406 7.261719 55.25 7.746094 C 55.6875 11.492188 56.101562 15.242188 56.519531 18.992188 C 56.527344 19.066406 56.488281 19.148438 56.46875 19.226562 C 56.453125 19.148438 56.433594 19.070312 56.425781 18.992188 C 56.011719 15.261719 55.601562 11.53125 55.175781 7.800781 C 55.171875 7.742188 55.039062 7.648438 54.960938 7.644531 C 54.644531 7.632812 54.351562 7.914062 54.40625 8.101562 C 55.140625 10.535156 55.089844 13.078125 55.453125 15.5625 C 55.621094 16.71875 56.273438 18.230469 54.222656 18.535156 C 54.300781 18.664062 54.480469 18.839844 54.445312 18.914062 C 54.082031 19.714844 53.683594 20.5 53.289062 21.285156 C 53.277344 21.300781 53.164062 21.292969 53.160156 21.273438 C 53.136719 21.21875 53.128906 21.148438 53.144531 21.09375 C 53.238281 20.75 53.34375 20.40625 53.441406 20.066406 C 52.996094 20.195312 52.472656 20.21875 52.132812 20.484375 C 51.886719 20.675781 51.777344 20.75 51.570312 20.554688 C 51.300781 20.300781 51.527344 20.035156 51.636719 19.8125 C 51.773438 19.527344 51.84375 19.230469 51.636719 19.011719 C 51.550781 18.921875 51.242188 19.039062 51.035156 19.0625 C 50.699219 19.101562 50.886719 19.359375 50.851562 19.519531 C 50.820312 19.675781 50.828125 19.839844 50.816406 20 C 50.691406 19.914062 50.570312 19.824219 50.445312 19.742188 C 50.414062 19.722656 50.367188 19.71875 50.324219 19.710938 C 50.347656 19.742188 50.367188 19.773438 50.390625 19.800781 C 52.445312 22.105469 55.578125 21.648438 56.863281 18.855469 C 56.980469 18.605469 57.199219 18.605469 57.382812 18.695312 C 57.636719 18.820312 57.589844 19.066406 57.453125 19.246094 C 56.636719 20.292969 56.460938 21.484375 56.53125 22.773438 C 56.5625 23.265625 56.675781 23.304688 57.117188 23.257812 C 59.109375 23.039062 61.113281 22.871094 63.109375 22.667969 C 63.4375 22.632812 63.289062 22.324219 63.289062 22.152344 C 63.296875 20.285156 63.289062 20.265625 64.332031 20.355469 C 72.71875 21.078125 81.0625 22.152344 89.347656 23.671875 C 89.382812 23.679688 89.414062 23.703125 89.449219 23.71875 C 89.363281 23.714844 89.273438 23.722656 89.1875 23.707031 C 81.140625 22.265625 73.042969 21.199219 64.898438 20.445312 C 63.695312 20.332031 63.175781 20.523438 63.480469 21.78125 C 63.558594 22.117188 63.183594 22.722656 63.691406 22.765625 C 73.605469 23.65625 83.523438 24.503906 93.445312 25.351562 C 93.5625 25.359375 93.847656 25.515625 93.8125 25.222656 C 93.78125 24.96875 94.074219 24.566406 93.519531 24.46875 C 92.152344 24.242188 90.796875 23.976562 89.4375 23.71875 Z M 51.414062 7.019531 C 51.441406 7.203125 51.464844 7.386719 51.492188 7.570312 C 51.671875 7.542969 51.933594 7.664062 51.964844 7.351562 C 51.980469 7.171875 51.941406 6.992188 51.925781 6.8125 C 51.753906 6.882812 51.582031 6.957031 51.410156 7.027344 C 51.484375 6.863281 51.558594 6.703125 51.636719 6.539062 C 51.546875 6.578125 51.417969 6.597656 51.375 6.667969 C 51.25 6.871094 51.160156 7.09375 51.058594 7.3125 C 51.128906 7.097656 51.203125 6.886719 51.265625 6.671875 C 51.269531 6.667969 51.144531 6.605469 51.078125 6.601562 C 49.832031 6.570312 49 7.746094 47.765625 7.757812 C 47.734375 7.757812 47.675781 7.9375 47.675781 8.03125 C 47.675781 10.371094 47.679688 12.710938 47.679688 15.050781 C 47.679688 15.285156 47.832031 15.488281 47.980469 15.34375 C 48.484375 14.871094 47.996094 14.296875 48.046875 13.765625 C 48.085938 13.40625 48.089844 13.042969 48.105469 12.683594 C 48.109375 12.667969 48.125 12.652344 48.132812 12.636719 C 48.140625 12.90625 48.117188 13.183594 48.167969 13.441406 C 48.230469 13.75 48.339844 14.289062 48.460938 14.296875 C 48.84375 14.324219 48.65625 13.933594 48.671875 13.71875 C 48.699219 13.394531 48.664062 13.0625 48.65625 12.734375 C 48.625 13.078125 48.597656 13.417969 48.566406 13.757812 C 48.550781 13.902344 48.527344 14.050781 48.507812 14.199219 C 48.476562 14.054688 48.417969 13.910156 48.417969 13.769531 C 48.410156 13.03125 48.414062 12.296875 48.425781 11.5625 C 48.429688 11.492188 48.535156 11.425781 48.59375 11.359375 C 48.636719 11.398438 48.71875 11.441406 48.71875 11.480469 C 48.714844 12.417969 49.269531 13.332031 48.832031 14.289062 C 48.726562 14.515625 48.925781 14.722656 48.867188 15.011719 C 48.765625 15.539062 49.292969 15.28125 49.570312 15.265625 C 49.640625 15.261719 49.707031 15.101562 49.773438 15.011719 C 49.769531 15.398438 50.085938 15.242188 50.265625 15.265625 C 50.304688 15.269531 50.425781 15.007812 50.421875 14.867188 C 50.402344 14.101562 50.355469 13.339844 50.324219 12.570312 C 50.320312 12.464844 50.355469 12.355469 50.375 12.246094 C 50.398438 12.363281 50.4375 12.476562 50.441406 12.597656 C 50.464844 13.410156 50.480469 14.222656 50.511719 15.035156 C 50.515625 15.125 50.617188 15.210938 50.675781 15.296875 C 50.722656 15.242188 50.804688 15.183594 50.804688 15.125 C 50.816406 12.738281 50.8125 10.351562 50.828125 7.964844 C 50.828125 7.828125 50.957031 7.6875 51.027344 7.546875 C 51.0625 7.667969 51.132812 7.792969 51.132812 7.914062 C 51.152344 10.578125 51.164062 13.246094 51.179688 15.910156 C 51.179688 15.996094 51.234375 16.082031 51.261719 16.167969 C 51.285156 16.105469 51.332031 16.042969 51.332031 15.976562 C 51.320312 13.414062 51.300781 10.851562 51.300781 8.289062 C 51.296875 7.863281 51.375 7.441406 51.414062 7.019531 Z M 44.605469 17.960938 C 44.386719 17.742188 44.109375 17.820312 43.941406 17.953125 C 43.734375 18.125 43.488281 18.402344 43.484375 18.632812 C 43.449219 21.351562 43.457031 24.070312 43.457031 26.785156 C 43.457031 26.835938 43.484375 26.882812 43.5 26.933594 C 43.511719 26.890625 43.53125 26.84375 43.53125 26.800781 C 43.566406 24.210938 43.632812 21.617188 43.609375 19.027344 C 43.601562 18.234375 43.863281 17.925781 44.613281 17.957031 C 44.699219 18.773438 44.203125 19.511719 44.140625 20.230469 C 43.914062 22.875 43.957031 25.539062 43.894531 28.199219 C 43.894531 28.28125 43.863281 28.359375 43.847656 28.441406 C 43.785156 28.402344 43.707031 28.378906 43.664062 28.324219 C 43.59375 28.238281 43.546875 28.128906 43.488281 28.03125 C 43.53125 28.175781 43.542969 28.351562 43.632812 28.457031 C 43.757812 28.605469 43.933594 28.734375 44.113281 28.808594 C 44.234375 28.855469 44.398438 28.792969 44.542969 28.777344 C 44.558594 29.136719 44.398438 29.398438 44.148438 29.648438 C 44.011719 29.785156 43.875 30.011719 43.882812 30.191406 C 43.988281 31.714844 43.878906 33.253906 44.234375 34.769531 C 44.445312 35.660156 45.027344 35.570312 45.660156 35.488281 C 45.734375 35.480469 45.804688 35.445312 45.875 35.421875 C 45.890625 35.632812 45.90625 35.847656 45.921875 36.058594 C 45.859375 36.019531 45.792969 35.9375 45.738281 35.941406 C 45.433594 35.972656 45.121094 35.992188 44.84375 36.09375 C 44.777344 36.117188 44.742188 36.539062 44.832031 36.621094 C 45.289062 37.042969 44.425781 38.847656 46.277344 37.902344 C 46.964844 37.550781 47.8125 37.589844 48.515625 36.964844 C 49.226562 36.328125 50.273438 36.003906 50.921875 37.207031 C 51.125 37.582031 51.304688 37.671875 51.695312 37.636719 C 53.097656 37.503906 54.503906 37.40625 55.847656 38.003906 C 55.878906 38.015625 55.90625 38.039062 55.929688 38.066406 C 55.933594 38.074219 55.902344 38.128906 55.886719 38.128906 C 54.867188 38.105469 55.386719 38.878906 55.253906 39.320312 C 55.179688 39.574219 55.042969 39.8125 54.933594 40.058594 C 54.902344 40.015625 54.859375 39.980469 54.839844 39.933594 C 54.601562 39.40625 54.167969 39.46875 53.886719 39.769531 C 52.628906 41.144531 52 42.757812 52.234375 44.648438 C 52.238281 44.710938 52.289062 44.816406 52.3125 44.8125 C 52.414062 44.804688 52.554688 44.792969 52.605469 44.726562 C 52.851562 44.40625 53.066406 44.054688 53.316406 43.738281 C 53.386719 43.648438 53.550781 43.628906 53.671875 43.578125 C 53.726562 43.71875 53.84375 43.859375 53.835938 43.996094 C 53.808594 44.539062 53.722656 45.078125 53.699219 45.621094 C 53.6875 45.835938 53.554688 46.246094 53.957031 46.191406 C 54.511719 46.117188 55.429688 46.746094 55.574219 45.765625 C 56.113281 42.171875 57.347656 39.007812 60.53125 36.925781 C 60.980469 36.632812 61.304688 36.421875 61.238281 35.808594 C 61.1875 35.351562 61.304688 34.878906 61.34375 34.410156 C 61.328125 34.882812 61.273438 35.359375 61.308594 35.828125 C 61.324219 36.054688 61.066406 36.660156 61.5 36.480469 C 66 34.613281 70.578125 37.105469 73.085938 40.8125 C 73.175781 40.941406 73.363281 41.074219 73.507812 41.082031 C 74.449219 41.121094 75.390625 41.121094 76.332031 41.140625 C 76.511719 41.144531 76.546875 41.136719 76.5625 40.902344 C 76.613281 40.160156 76.027344 38.886719 77.671875 39.246094 C 78.390625 39.402344 77.84375 40.066406 78.019531 40.46875 C 78.101562 40.660156 78.007812 40.910156 77.691406 40.933594 C 77.589844 40.941406 77.492188 41.027344 77.394531 41.074219 C 77.488281 41.097656 77.574219 41.144531 77.667969 41.148438 C 83.007812 41.316406 88.34375 41.09375 93.679688 40.925781 C 94.207031 40.910156 94.316406 40.765625 94.296875 40.273438 C 94.195312 37.75 94.121094 35.226562 94.050781 32.703125 C 94.042969 32.441406 93.925781 32.378906 93.699219 32.355469 C 84.394531 31.328125 75.085938 30.296875 65.777344 29.277344 C 65.355469 29.234375 64.632812 29.144531 64.550781 29.316406 C 64.136719 30.191406 63.269531 30.933594 63.53125 32.0625 C 63.546875 32.136719 63.503906 32.226562 63.488281 32.308594 C 63.472656 32.304688 63.445312 32.300781 63.445312 32.289062 C 63.429688 32.203125 63.40625 32.109375 63.40625 32.019531 C 63.402344 31.851562 63.414062 31.679688 63.417969 31.511719 C 63.203125 31.570312 62.957031 31.386719 62.777344 31.714844 C 62.570312 32.089844 62.296875 32.457031 61.964844 32.71875 C 61.617188 32.988281 61.164062 33.128906 60.757812 33.328125 C 60.816406 33.074219 60.90625 32.820312 60.914062 32.570312 C 60.917969 32.441406 60.785156 32.273438 60.667969 32.191406 C 60.570312 32.125 60.402344 32.160156 60.265625 32.152344 C 60.421875 32.140625 60.589844 32.089844 60.726562 32.128906 C 61.023438 32.214844 61.101562 32.035156 61.214844 31.835938 C 61.726562 30.921875 62.238281 30.007812 62.769531 29.101562 C 62.902344 28.875 62.839844 28.851562 62.625 28.867188 C 60.785156 29 58.945312 29.121094 57.105469 29.257812 C 56.941406 29.269531 56.644531 29.332031 56.644531 29.375 C 56.636719 30.335938 56.632812 31.296875 56.75 32.246094 C 56.757812 32.308594 57.742188 32.257812 58.269531 32.246094 C 58.746094 32.242188 59.21875 32.222656 59.695312 32.207031 C 59.234375 32.242188 58.777344 32.28125 58.316406 32.320312 C 58 32.347656 57.675781 32.417969 57.363281 32.386719 C 56.789062 32.332031 56.648438 32.542969 56.65625 33.113281 C 56.667969 33.953125 56.246094 34.472656 55.3125 34.523438 C 52.222656 34.695312 49.128906 34.859375 46.046875 35.128906 C 45.234375 35.199219 44.988281 34.882812 44.855469 34.238281 C 44.847656 34.203125 44.855469 34.160156 44.859375 34.125 C 44.871094 34.148438 44.890625 34.171875 44.898438 34.195312 C 45.0625 34.835938 45.585938 34.933594 46.097656 34.90625 C 49.101562 34.761719 52.105469 34.566406 55.113281 34.425781 C 56.074219 34.378906 56.582031 33.960938 56.578125 32.988281 C 56.570312 32.078125 56.484375 31.160156 56.539062 30.253906 C 56.585938 29.464844 56.421875 29.171875 55.558594 29.359375 C 54.71875 29.539062 53.832031 29.476562 52.984375 29.636719 C 51.472656 29.933594 49.695312 29.246094 48.488281 30.78125 C 48.472656 30.800781 48.183594 30.671875 48.1875 30.632812 C 48.289062 29.785156 47.710938 30.089844 47.320312 30.121094 C 46.566406 30.175781 45.816406 30.261719 45.0625 30.316406 C 44.988281 30.320312 44.902344 30.207031 44.820312 30.148438 C 44.894531 30.066406 44.964844 29.925781 45.046875 29.914062 C 45.929688 29.816406 46.816406 29.746094 47.703125 29.660156 C 47.894531 29.636719 48.078125 29.574219 48.269531 29.53125 C 48.070312 29.535156 47.871094 29.519531 47.675781 29.542969 C 44.816406 29.882812 44.816406 29.882812 44.820312 27.027344 C 44.824219 26.648438 44.855469 26.265625 44.816406 25.894531 C 44.769531 25.464844 44.925781 25.324219 45.34375 25.300781 C 45.761719 25.28125 46.175781 25.167969 46.589844 25.089844 C 46.175781 25.125 45.761719 25.175781 45.347656 25.175781 C 45.183594 25.179688 44.910156 25.421875 44.851562 25.089844 C 44.78125 24.714844 45.15625 24.800781 45.316406 24.808594 C 46.328125 24.859375 46.703125 24.433594 46.523438 23.425781 C 46.402344 22.761719 46.597656 22.152344 46.984375 21.558594 C 47.261719 21.128906 47.339844 22.007812 47.328125 21.59375 C 47.3125 20.808594 47.925781 20.414062 48.234375 19.832031 C 48.289062 19.726562 48.371094 19.632812 48.441406 19.535156 C 48.308594 19.546875 48.175781 19.574219 48.042969 19.570312 C 47.144531 19.546875 45.664062 20.667969 45.851562 18.492188 C 45.917969 17.730469 46.039062 16.960938 46.226562 16.21875 C 46.796875 14.015625 46.179688 11.589844 47.496094 9.527344 C 47.507812 9.511719 47.441406 9.414062 47.433594 9.417969 C 46.5625 9.769531 45.28125 9.617188 45.144531 10.9375 C 44.902344 13.273438 44.257812 15.582031 44.605469 17.960938 Z M 65.460938 42.109375 C 64.238281 42.160156 63.828125 42.472656 62.8125 43.460938 C 62.308594 43.953125 62.988281 43.988281 62.953125 44.269531 C 62.945312 44.347656 63.234375 44.546875 63.371094 44.539062 C 64.429688 44.460938 65.433594 44.214844 66.488281 44.839844 C 68.132812 45.8125 67.847656 47.789062 68.894531 49.042969 C 69.136719 49.332031 68.808594 49.902344 69.816406 49.65625 C 71.023438 49.355469 71.015625 48.917969 70.929688 48.027344 C 70.605469 44.703125 68.125 42 65.460938 42.109375 Z M 41.496094 40.484375 C 41.492188 40.503906 41.492188 40.523438 41.488281 40.542969 C 41.203125 40.515625 40.921875 40.492188 40.636719 40.46875 C 40.769531 40.394531 40.90625 40.265625 41.042969 40.253906 C 41.9375 40.207031 42.835938 40.175781 43.730469 40.164062 C 46.519531 40.121094 49.3125 40.097656 52.105469 40.042969 C 52.210938 40.042969 52.320312 39.863281 52.421875 39.757812 C 52.441406 39.738281 52.429688 39.691406 52.433594 39.660156 C 52.339844 39.660156 52.207031 39.621094 52.152344 39.671875 C 51.695312 40.054688 51.164062 39.773438 50.6875 39.804688 C 49.003906 39.921875 47.3125 39.914062 45.625 39.929688 C 45.160156 39.933594 44.292969 39.882812 44.289062 39.816406 C 44.230469 38.929688 43.515625 38.761719 42.96875 38.761719 C 40.457031 38.765625 37.863281 41.980469 38.3125 44.441406 C 38.375 44.789062 38.636719 44.84375 38.882812 44.6875 C 39.96875 43.996094 41.132812 44.5 41.992188 44.902344 C 42.996094 45.371094 42.210938 44.480469 42.445312 44.507812 C 42.339844 43.988281 43.089844 43.175781 41.957031 43.015625 C 41.460938 42.945312 40.949219 42.949219 40.445312 42.921875 C 40.484375 42.304688 40.992188 41.964844 41.292969 41.507812 C 41.429688 41.296875 41.601562 41.101562 41.789062 40.9375 C 41.957031 40.792969 42.171875 40.695312 42.363281 40.578125 C 42.074219 40.546875 41.785156 40.515625 41.496094 40.484375 Z M 46.003906 43.027344 C 44.722656 42.925781 43.679688 42.707031 43.800781 44.367188 C 43.855469 45.101562 44.5 44.222656 44.601562 44.851562 C 44.675781 45.308594 45.15625 45.265625 45.394531 44.84375 C 45.414062 44.8125 45.476562 44.769531 45.503906 44.78125 C 45.550781 44.796875 45.585938 44.847656 45.625 44.890625 C 45.675781 44.960938 45.726562 45.035156 45.777344 45.105469 C 45.832031 45.007812 45.921875 44.921875 45.933594 44.820312 C 46.0625 43.816406 47.140625 44.871094 47.40625 44.148438 C 47.410156 44.136719 47.703125 44.183594 47.800781 44.269531 C 47.867188 44.328125 47.808594 44.507812 47.835938 44.628906 C 47.875 44.792969 47.9375 44.949219 47.988281 45.109375 C 48.054688 45.085938 48.121094 45.054688 48.1875 45.042969 C 48.574219 44.984375 48.976562 44.976562 49.339844 44.863281 C 49.785156 44.726562 50.648438 45.328125 50.582031 44.246094 C 50.554688 43.839844 51.089844 43.128906 50.496094 43.074219 C 48.921875 42.929688 47.320312 43.027344 46.003906 43.027344 Z M 15.585938 45.519531 C 15.585938 46.921875 15.878906 48.027344 16.425781 48.839844 C 17.226562 50.042969 18.378906 50.222656 19.265625 49.292969 C 19.324219 49.234375 19.355469 49.152344 19.398438 49.082031 C 19.316406 49.074219 19.234375 49.0625 19.152344 49.058594 C 18.832031 49.050781 18.421875 49.167969 18.21875 49.011719 C 17.96875 48.824219 17.523438 48.65625 17.621094 48.175781 C 16.90625 48.1875 17.769531 47.683594 17.425781 47.574219 C 17.589844 47.519531 17.753906 47.460938 17.917969 47.402344 C 18.019531 47.359375 18.121094 47.316406 18.222656 47.265625 C 18.226562 47.261719 18.210938 47.167969 18.191406 47.160156 C 17.269531 46.902344 17.273438 45.996094 16.917969 45.34375 C 16.84375 45.207031 16.789062 45.0625 16.726562 44.921875 C 16.65625 45.042969 16.609375 45.199219 16.503906 45.28125 C 16.386719 45.375 16.21875 45.398438 16.074219 45.449219 C 16.03125 45.308594 15.996094 45.164062 15.945312 45.023438 C 15.910156 44.929688 15.855469 44.84375 15.8125 44.753906 C 15.753906 44.820312 15.65625 44.882812 15.644531 44.960938 C 15.601562 45.207031 15.589844 45.460938 15.585938 45.519531 Z M 56.421875 20.117188 C 56.421875 20.105469 56.40625 19.859375 56.390625 19.609375 C 56.21875 19.800781 56.035156 19.980469 55.875 20.175781 C 55.484375 20.652344 55.085938 21.316406 54.5 21.316406 C 52.953125 21.316406 52.851562 22.527344 52.421875 23.492188 C 52.394531 23.554688 52.347656 23.617188 52.347656 23.683594 C 52.347656 23.730469 52.402344 23.820312 52.4375 23.824219 C 54.582031 24.128906 56.425781 22.519531 56.421875 20.117188 Z M 91.449219 41.753906 C 91.449219 41.703125 91.449219 41.65625 91.449219 41.609375 C 90.3125 41.609375 89.179688 41.609375 88.042969 41.605469 C 87.988281 41.605469 87.933594 41.59375 87.878906 41.589844 C 87.9375 41.585938 87.996094 41.578125 88.050781 41.578125 C 89.285156 41.5625 90.519531 41.554688 91.75 41.539062 C 91.789062 41.539062 91.828125 41.535156 91.863281 41.53125 C 91.835938 41.527344 91.808594 41.523438 91.777344 41.523438 C 90.410156 41.53125 89.039062 41.507812 87.675781 41.554688 C 87.136719 41.574219 86.535156 41.308594 86.066406 41.800781 C 85.777344 41.519531 85.378906 41.363281 85.261719 41.832031 C 85.183594 42.148438 85.628906 42.121094 85.941406 42.121094 C 87.640625 42.109375 89.34375 42.160156 91.042969 42.148438 C 93.222656 42.128906 95.402344 42.066406 97.582031 42.023438 C 97.65625 42.023438 97.730469 42 97.804688 41.984375 C 97.785156 41.964844 97.773438 41.933594 97.753906 41.933594 C 97.398438 41.910156 97.019531 41.820312 96.703125 41.800781 C 94.957031 41.699219 93.203125 41.753906 91.449219 41.753906 Z M 7.847656 48.917969 C 8.140625 48.710938 8.453125 48.492188 8.765625 48.265625 C 8.785156 48.253906 8.78125 48.175781 8.777344 48.171875 C 8.203125 48.074219 7.644531 47.96875 7.625 47.203125 C 7.625 47.140625 7.488281 47.082031 7.410156 47.023438 C 7.601562 46.886719 7.785156 46.742188 7.976562 46.613281 C 8.074219 46.550781 8.1875 46.515625 8.292969 46.46875 C 8.207031 46.433594 8.101562 46.417969 8.035156 46.363281 C 7.78125 46.144531 7.175781 46.21875 7.382812 45.605469 C 7.019531 45.566406 7.398438 44.417969 6.558594 45.058594 C 6.421875 45.164062 6.171875 45.128906 5.972656 45.136719 C 5.957031 45.136719 5.9375 44.929688 5.921875 44.816406 C 5.898438 44.933594 5.851562 45.050781 5.855469 45.164062 C 5.871094 45.542969 5.859375 45.929688 5.929688 46.296875 C 6.152344 47.414062 6.4375 48.503906 7.847656 48.917969 Z M 64.972656 28.5625 C 64.925781 28.578125 64.871094 28.601562 64.816406 28.621094 C 64.941406 28.664062 65.070312 28.726562 65.199219 28.742188 C 74.703125 29.777344 84.207031 30.8125 93.707031 31.84375 C 93.800781 31.855469 93.898438 31.835938 93.992188 31.832031 C 93.898438 31.789062 93.804688 31.722656 93.703125 31.707031 C 91.875 31.480469 90.042969 31.242188 88.210938 31.046875 C 80.472656 30.210938 72.734375 29.390625 64.972656 28.5625 Z M 93.800781 26.03125 C 93.449219 26.011719 93.554688 26.042969 93.644531 26.019531 C 94.011719 25.925781 93.824219 25.902344 93.625 25.886719 C 91.230469 25.667969 88.835938 25.445312 86.441406 25.238281 C 78.933594 24.59375 71.425781 23.953125 63.914062 23.3125 C 63.777344 23.300781 63.632812 23.328125 63.492188 23.335938 C 63.636719 23.371094 63.78125 23.421875 63.929688 23.433594 C 65.988281 23.609375 68.046875 23.769531 70.105469 23.949219 C 77.855469 24.625 85.605469 25.308594 93.800781 26.03125 Z M 51.722656 23.929688 C 51.855469 23.898438 51.949219 23.902344 51.960938 23.871094 C 52.300781 23.085938 52.644531 22.296875 52.921875 21.488281 C 52.933594 21.449219 52.363281 21.207031 52.054688 21.070312 C 52.042969 21.0625 51.957031 21.148438 51.953125 21.195312 C 51.835938 22.039062 51.726562 22.886719 51.625 23.730469 C 51.617188 23.796875 51.691406 23.871094 51.722656 23.929688 Z M 102.253906 38.167969 C 102.777344 38.144531 103.101562 38.082031 103.410156 38.125 C 104.179688 38.234375 104.140625 37.546875 103.949219 37.339844 C 103.394531 36.746094 102.546875 37.410156 101.882812 37.039062 C 102.148438 37.375 101.773438 38.042969 102.253906 38.167969 Z M 104.285156 41.035156 C 101.949219 41.261719 99.777344 41.46875 97.609375 41.675781 C 97.5625 41.683594 97.519531 41.703125 97.476562 41.714844 C 97.492188 41.722656 97.507812 41.738281 97.523438 41.738281 C 97.984375 41.742188 98.347656 42.160156 98.882812 41.933594 C 99.394531 41.71875 99.964844 41.621094 100.519531 41.550781 C 101.210938 41.460938 101.929688 41.546875 102.597656 41.390625 C 103.128906 41.261719 103.738281 41.671875 104.191406 41.144531 C 104.339844 41.3125 104.472656 41.527344 104.738281 41.308594 C 104.546875 41.191406 104.359375 41.078125 104.285156 41.035156 Z M 65.003906 50.988281 C 65.101562 50.988281 65.199219 50.988281 65.292969 50.988281 C 65.199219 50.96875 65.105469 50.949219 65.015625 50.925781 C 64.289062 50.753906 63.792969 50.386719 63.699219 49.566406 C 63.675781 49.347656 63.402344 49.152344 63.238281 48.949219 C 63.234375 48.941406 63.1875 48.953125 63.179688 48.964844 C 62.882812 49.445312 62.519531 49.902344 62.320312 50.425781 C 62.242188 50.636719 62.511719 50.984375 62.628906 51.269531 C 62.636719 51.289062 62.683594 51.296875 62.714844 51.3125 C 62.710938 51.121094 62.695312 50.929688 62.710938 50.742188 C 62.746094 50.402344 62.871094 50.082031 63.195312 49.945312 C 63.523438 49.808594 63.636719 50.164062 63.777344 50.34375 C 64.097656 50.75 64.464844 51.019531 65.003906 50.988281 Z M 56.066406 4.34375 C 55.503906 4.03125 55.117188 4.265625 54.742188 4.421875 C 54.382812 4.574219 54.03125 4.757812 53.695312 4.960938 C 53.59375 5.019531 53.570312 5.199219 53.507812 5.320312 C 53.617188 5.316406 53.726562 5.324219 53.828125 5.300781 C 54.53125 5.117188 55.238281 4.9375 55.9375 4.738281 C 56.191406 4.667969 56.429688 4.554688 56.679688 4.457031 C 56.445312 4.214844 56.171875 4.304688 56.066406 4.34375 Z M 35.878906 29.058594 C 35.546875 29.132812 34.960938 28.964844 35.183594 29.484375 C 35.550781 30.347656 36.3125 29.488281 36.871094 29.714844 C 37.0625 29.792969 37.152344 29.660156 37.121094 29.445312 C 36.964844 28.351562 36.1875 29.421875 35.878906 29.058594 Z M 60.410156 48.378906 C 60.515625 50.359375 61.03125 51.917969 62.085938 53.285156 C 62.140625 53.351562 62.222656 53.398438 62.292969 53.457031 C 62.257812 53.382812 62.234375 53.300781 62.1875 53.234375 C 61.191406 51.847656 60.847656 50.246094 60.679688 48.589844 C 60.648438 48.269531 60.582031 47.957031 60.53125 47.640625 C 60.476562 47.972656 60.421875 48.304688 60.410156 48.378906 Z M 31.566406 30.078125 C 31.859375 30.085938 32.101562 30.148438 32.050781 29.808594 C 32.023438 29.648438 32.128906 29.324219 31.835938 29.421875 C 31.304688 29.597656 30.292969 29.148438 30.304688 29.832031 C 30.316406 30.699219 31.21875 29.792969 31.566406 30.078125 Z M 26.96875 30.492188 C 27.101562 30.433594 27.378906 30.597656 27.335938 30.257812 C 27.3125 30.082031 27.472656 29.742188 27.097656 29.808594 C 26.589844 29.898438 25.726562 29.625 25.746094 30.402344 C 25.753906 30.816406 26.535156 30.394531 26.96875 30.492188 Z M 64.132812 51.191406 C 63.648438 51.304688 63.363281 51.65625 63.386719 51.992188 C 63.402344 52.195312 63.878906 52.371094 64.148438 52.558594 C 64.257812 52.378906 64.46875 52.183594 64.449219 52.015625 C 64.410156 51.71875 64.234375 51.441406 64.132812 51.191406 Z M 56.425781 22.488281 C 56.425781 22.203125 56.429688 22.039062 56.421875 21.875 C 56.414062 21.730469 56.382812 21.585938 56.363281 21.441406 C 56.066406 22.0625 55.769531 22.679688 55.476562 23.304688 C 55.472656 23.316406 55.546875 23.390625 55.585938 23.394531 C 56.390625 23.484375 56.59375 23.074219 56.425781 22.488281 Z M 51.421875 22.65625 C 51.429688 22.386719 51.476562 22.054688 51.199219 22.175781 C 50.386719 22.53125 51.0625 23.261719 50.871094 23.789062 C 50.851562 23.84375 50.996094 24.015625 51.007812 24.011719 C 51.695312 23.695312 51.144531 23.011719 51.421875 22.65625 Z M 18.148438 31.210938 C 18.402344 30.949219 19.035156 31.484375 19.054688 30.753906 C 19.070312 30.296875 18.660156 30.476562 18.496094 30.523438 C 18.195312 30.613281 17.632812 30.28125 17.636719 30.964844 C 17.636719 31.414062 17.972656 31.078125 18.148438 31.210938 Z M 22.089844 30.90625 C 22.355469 30.628906 23.035156 31.140625 23.003906 30.542969 C 22.964844 29.777344 22.296875 30.402344 21.925781 30.277344 C 21.632812 30.179688 21.472656 30.488281 21.511719 30.726562 C 21.570312 31.101562 21.890625 30.75 22.089844 30.90625 Z M 56.550781 28.75 C 58.90625 28.613281 60.949219 28.492188 62.988281 28.367188 C 63.050781 28.363281 63.109375 28.316406 63.167969 28.289062 C 63.089844 28.269531 63.007812 28.226562 62.933594 28.230469 C 60.894531 28.378906 58.855469 28.535156 56.816406 28.691406 C 56.753906 28.695312 56.691406 28.742188 56.628906 28.769531 C 56.707031 28.785156 56.789062 28.804688 56.550781 28.75 Z M 56.648438 23.875 C 58.753906 23.652344 60.808594 23.433594 62.863281 23.210938 C 62.90625 23.207031 62.941406 23.15625 62.980469 23.128906 C 62.910156 23.113281 62.835938 23.078125 62.765625 23.085938 C 60.75 23.304688 58.734375 23.53125 56.71875 23.761719 C 56.667969 23.765625 56.617188 23.816406 56.566406 23.847656 C 56.609375 23.863281 56.652344 23.878906 56.648438 23.875 Z M 14.847656 30.8125 C 14.5625 30.972656 13.953125 30.609375 14.027344 31.332031 C 14.066406 31.710938 14.410156 31.488281 14.523438 31.453125 C 14.8125 31.367188 15.390625 31.722656 15.347656 31.019531 C 15.320312 30.617188 15.015625 30.910156 14.847656 30.8125 Z M 96.578125 23.800781 C 97.285156 23.757812 98.089844 23.714844 98.890625 23.652344 C 99.019531 23.644531 99.144531 23.554688 99.273438 23.503906 C 99.144531 23.460938 99.007812 23.367188 98.882812 23.378906 C 98.058594 23.464844 97.238281 23.574219 96.417969 23.679688 C 96.207031 23.707031 96 23.734375 95.792969 23.761719 C 96.019531 23.773438 96.25 23.785156 96.578125 23.800781 Z M 50.316406 29.445312 C 52.332031 29.230469 54.335938 29.011719 56.34375 28.792969 C 56.394531 28.789062 56.4375 28.738281 56.484375 28.707031 C 56.445312 28.695312 56.402344 28.671875 56.363281 28.675781 C 54.347656 28.882812 52.332031 29.089844 50.3125 29.304688 C 50.253906 29.308594 50.203125 29.355469 50.144531 29.386719 C 50.203125 29.40625 50.261719 29.425781 50.316406 29.445312 Z M 11.5 31.128906 C 11.28125 31.300781 10.597656 30.957031 10.730469 31.613281 C 10.796875 31.949219 11.304688 31.671875 11.609375 31.699219 C 11.898438 31.726562 11.902344 31.535156 11.902344 31.324219 C 11.90625 31.046875 11.722656 31.113281 11.5 31.128906 Z M 49.496094 17.433594 C 49.523438 17.460938 49.648438 17.664062 49.695312 17.648438 C 49.945312 17.558594 50.175781 17.410156 50.414062 17.285156 C 50.308594 17.253906 50.203125 17.230469 50.101562 17.195312 C 50.0625 17.179688 50.027344 17.144531 49.992188 17.117188 C 50.066406 17.03125 50.132812 16.941406 50.210938 16.859375 C 50.28125 16.78125 50.367188 16.710938 50.441406 16.636719 C 50.332031 16.597656 50.214844 16.503906 50.113281 16.527344 C 49.695312 16.609375 49.492188 16.882812 49.496094 17.433594 Z M 8.210938 31.425781 C 7.894531 31.457031 7.484375 31.316406 7.546875 31.855469 C 7.554688 31.914062 7.667969 32.015625 7.699219 32.003906 C 8.03125 31.890625 8.585938 32.238281 8.667969 31.625 C 8.726562 31.195312 8.335938 31.53125 8.210938 31.425781 Z M 65.78125 55.410156 C 66.277344 55.351562 66.636719 55.328125 66.984375 55.261719 C 67.164062 55.230469 67.332031 55.125 67.503906 55.054688 C 67.335938 55.0625 67.167969 55.074219 67 55.082031 C 66.585938 55.105469 66.171875 55.148438 65.757812 55.144531 C 65.335938 55.136719 64.917969 55.082031 64.496094 55.046875 C 64.964844 55.179688 65.433594 55.3125 65.78125 55.410156 Z M 50.324219 50.273438 C 50.320312 50.257812 50.316406 50.238281 50.308594 50.222656 C 50.207031 50.25 50.101562 50.277344 50 50.3125 C 49.992188 50.316406 50 50.40625 50.007812 50.40625 C 50.121094 50.421875 50.234375 50.457031 50.34375 50.4375 C 50.863281 50.351562 51.386719 50.261719 51.902344 50.148438 C 52.015625 50.125 52.101562 49.996094 52.203125 49.914062 C 52.105469 49.925781 52.003906 49.933594 51.90625 49.953125 C 51.378906 50.058594 50.851562 50.167969 50.324219 50.273438 Z M 52.203125 24.425781 C 53.070312 24.3125 53.921875 24.199219 54.777344 24.082031 C 54.824219 24.078125 54.863281 24.03125 54.910156 24 C 54.867188 23.988281 54.824219 23.960938 54.785156 23.964844 C 53.925781 24.074219 53.0625 24.1875 52.199219 24.304688 C 52.15625 24.308594 52.121094 24.367188 52.082031 24.398438 C 52.125 24.410156 52.171875 24.417969 52.203125 24.425781 Z M 52.203125 24.425781 " fill-opacity="1" fill-rule="nonzero"/><path fill="#ffffff" d="M 74.226562 8.304688 C 75.113281 8.402344 74.839844 9.019531 74.777344 9.539062 C 74.367188 9.417969 73.917969 9.367188 73.558594 9.160156 C 73.175781 8.933594 73.40625 8.453125 73.332031 8.09375 C 73.542969 8.140625 73.757812 8.191406 73.972656 8.238281 C 73.777344 8.242188 73.632812 8.25 73.609375 8.523438 C 73.566406 9.0625 73.9375 9.15625 74.316406 9.25 C 74.398438 9.269531 74.566406 9.234375 74.574219 9.199219 C 74.648438 8.832031 74.601562 8.5 74.226562 8.304688 Z M 74.226562 8.304688 " fill-opacity="1" fill-rule="nonzero"/><path fill="#ffffff" d="M 84.179688 38.902344 C 82.898438 38.902344 81.617188 38.898438 80.335938 38.902344 C 79.960938 38.90625 79.503906 38.910156 79.457031 38.480469 C 79.398438 37.910156 79.480469 37.316406 79.574219 36.746094 C 79.652344 36.269531 79.988281 35.792969 79.9375 35.347656 C 79.867188 34.734375 80.039062 34.488281 80.597656 34.460938 C 82.839844 34.347656 85.085938 34.242188 87.328125 34.144531 C 87.429688 34.140625 87.539062 34.230469 87.644531 34.277344 C 87.542969 34.300781 87.441406 34.339844 87.335938 34.34375 C 86.0625 34.402344 84.789062 34.449219 83.515625 34.5 C 83.59375 34.808594 83.675781 35.117188 83.746094 35.429688 C 83.910156 36.164062 84.164062 36.894531 84.210938 37.640625 C 84.269531 38.570312 84.691406 38.800781 85.546875 38.71875 C 86.460938 38.632812 87.386719 38.652344 88.308594 38.628906 C 88.386719 38.628906 88.460938 38.664062 88.539062 38.679688 C 88.464844 38.707031 88.386719 38.757812 88.3125 38.757812 C 86.933594 38.761719 85.554688 38.761719 84.179688 38.761719 C 84.179688 38.808594 84.179688 38.855469 84.179688 38.902344 Z M 84.179688 38.902344 " fill-opacity="1" fill-rule="nonzero"/><path fill="#ffffff" d="M 75.160156 39.382812 C 74.757812 39.320312 74.082031 39.621094 74.210938 38.746094 C 74.265625 38.394531 74.070312 37.773438 74.746094 37.9375 C 75.238281 38.058594 76.078125 37.386719 76.199219 38.480469 C 76.285156 39.246094 75.914062 39.53125 75.160156 39.382812 Z M 75.160156 39.382812 " fill-opacity="1" fill-rule="nonzero"/><path fill="#ffffff" d="M 55.578125 37.722656 C 55.152344 37.832031 54.992188 37.542969 55.058594 37.152344 C 55.253906 35.976562 56.222656 36.898438 56.742188 36.570312 C 56.773438 36.550781 56.917969 36.628906 56.917969 36.65625 C 56.894531 37.027344 56.039062 37.726562 55.578125 37.722656 Z M 55.578125 37.722656 " fill-opacity="1" fill-rule="nonzero"/><path fill="#ffffff" d="M 51.832031 35.980469 C 53.703125 35.886719 55.570312 35.792969 57.441406 35.703125 C 57.503906 35.703125 57.566406 35.722656 57.628906 35.730469 C 57.570312 35.753906 57.515625 35.789062 57.460938 35.792969 C 53.710938 35.992188 49.964844 36.1875 46.214844 36.382812 C 46.132812 36.386719 46.046875 36.339844 45.964844 36.316406 C 46.050781 36.289062 46.136719 36.242188 46.222656 36.242188 C 48.089844 36.238281 49.960938 36.238281 51.832031 36.238281 C 51.832031 36.152344 51.832031 36.066406 51.832031 35.980469 Z M 51.832031 35.980469 " fill-opacity="1" fill-rule="nonzero"/><path fill="#ffffff" d="M 86.871094 36.308594 C 87.003906 36.121094 87.132812 35.878906 87.320312 35.710938 C 87.394531 35.648438 87.613281 35.753906 87.769531 35.78125 C 87.683594 35.957031 87.597656 36.136719 87.507812 36.3125 C 87.496094 36.34375 87.464844 36.398438 87.46875 36.398438 C 87.773438 36.628906 87.890625 36.933594 87.675781 37.246094 C 87.59375 37.359375 87.164062 37.394531 87.15625 37.371094 C 87.039062 37.050781 86.96875 36.714844 86.871094 36.308594 Z M 86.871094 36.308594 " fill-opacity="1" fill-rule="nonzero"/><path fill="#ffffff" d="M 44.53125 24.3125 C 44.527344 25.519531 44.527344 26.722656 44.527344 27.925781 C 44.527344 27.972656 44.515625 28.019531 44.511719 28.066406 C 44.5 28.027344 44.472656 27.992188 44.472656 27.953125 C 44.484375 25.523438 44.492188 23.097656 44.503906 20.671875 C 44.503906 20.644531 44.511719 20.613281 44.511719 20.585938 C 44.519531 20.625 44.535156 20.664062 44.535156 20.703125 C 44.535156 21.90625 44.535156 23.109375 44.53125 24.3125 Z M 44.53125 24.3125 " fill-opacity="1" fill-rule="nonzero"/><path fill="#ffffff" d="M 70.027344 46.296875 C 69.972656 46.628906 69.835938 46.925781 69.449219 46.921875 C 69.09375 46.914062 68.796875 46.714844 68.796875 46.324219 C 68.796875 45.9375 69.046875 45.691406 69.441406 45.691406 C 69.808594 45.691406 69.988281 45.933594 70.027344 46.296875 Z M 70.027344 46.296875 " fill-opacity="1" fill-rule="nonzero"/><path fill="#ffffff" d="M 67.40625 43.371094 C 67.324219 43.703125 67.214844 44.027344 66.8125 44.011719 C 66.492188 44 66.351562 43.714844 66.363281 43.4375 C 66.378906 43.09375 66.574219 42.820312 66.964844 42.828125 C 67.304688 42.832031 67.375 43.097656 67.40625 43.371094 Z M 67.40625 43.371094 " fill-opacity="1" fill-rule="nonzero"/><path fill="#ffffff" d="M 64.0625 43.453125 C 64.015625 43.792969 63.921875 44.136719 63.5625 44.167969 C 63.289062 44.195312 63.167969 43.921875 63.1875 43.652344 C 63.210938 43.335938 63.3125 43.03125 63.683594 43.003906 C 63.972656 42.984375 64.015625 43.25 64.0625 43.453125 Z M 64.0625 43.453125 " fill-opacity="1" fill-rule="nonzero"/><g clip-path="url(#dadfafa4c8)"><g clip-path="url(#e01d7a79c8)"><g transform="matrix(1, 0, 0, 1, 67, 56)"><g clip-path="url(#11599925cc)"><g clip-path="url(#6e57ea0d36)"><g clip-path="url(#2b6557fd46)"><path fill="#ff751f" d="M 0.636719 -4.035156 L 209.246094 -4.035156 L 209.246094 9.820312 L 0.636719 9.820312 Z M 0.636719 -4.035156 " fill-opacity="1" fill-rule="nonzero"/></g></g></g></g></g></g><g fill="#ffffff" fill-opacity="1"><g transform="translate(173.171803, 27.633847)"><g><path d="M 1.296875 -0.828125 C 0.640625 -1.484375 0.3125 -2.285156 0.3125 -3.234375 C 0.3125 -4.210938 0.65625 -5.050781 1.34375 -5.75 C 2.039062 -6.4375 2.859375 -6.78125 3.796875 -6.78125 C 4.242188 -6.78125 4.65625 -6.707031 5.03125 -6.5625 C 5.40625 -6.414062 5.597656 -6.34375 5.609375 -6.34375 C 5.679688 -6.34375 5.753906 -6.382812 5.828125 -6.46875 C 5.898438 -6.550781 5.953125 -6.65625 5.984375 -6.78125 L 6.140625 -6.78125 L 6.3125 -4.53125 L 6.078125 -4.53125 C 5.753906 -5.8125 5.046875 -6.453125 3.953125 -6.453125 C 3.222656 -6.453125 2.628906 -6.144531 2.171875 -5.53125 C 1.722656 -4.925781 1.5 -4.148438 1.5 -3.203125 C 1.5 -2.285156 1.753906 -1.554688 2.265625 -1.015625 C 2.742188 -0.484375 3.359375 -0.21875 4.109375 -0.21875 C 4.617188 -0.21875 5.046875 -0.375 5.390625 -0.6875 L 5.390625 -2.53125 C 5.390625 -2.851562 5.328125 -3.070312 5.203125 -3.1875 C 5.078125 -3.300781 4.832031 -3.359375 4.46875 -3.359375 L 4.46875 -3.546875 L 7.078125 -3.546875 L 7.078125 -3.359375 C 6.828125 -3.359375 6.648438 -3.300781 6.546875 -3.1875 C 6.453125 -3.0625 6.40625 -2.84375 6.40625 -2.53125 L 6.40625 -0.484375 C 5.6875 -0.0546875 4.804688 0.15625 3.765625 0.15625 C 2.773438 0.15625 1.953125 -0.171875 1.296875 -0.828125 Z M 1.296875 -0.828125 "/></g></g></g><g fill="#ffffff" fill-opacity="1"><g transform="translate(180.561075, 27.633847)"><g><path d="M 0.9375 -0.359375 C 1.0625 -0.472656 1.125 -0.703125 1.125 -1.046875 L 1.125 -5.578125 C 1.125 -5.921875 1.0625 -6.15625 0.9375 -6.28125 C 0.800781 -6.394531 0.550781 -6.453125 0.1875 -6.453125 L 0.1875 -6.625 L 3.21875 -6.625 C 3.90625 -6.625 4.453125 -6.460938 4.859375 -6.140625 C 5.222656 -5.835938 5.40625 -5.425781 5.40625 -4.90625 C 5.40625 -4.5 5.273438 -4.144531 5.015625 -3.84375 C 4.742188 -3.539062 4.378906 -3.332031 3.921875 -3.21875 L 5.34375 -1.140625 C 5.78125 -0.492188 6.28125 -0.171875 6.84375 -0.171875 L 6.84375 0 L 4.953125 0 L 2.859375 -3.125 L 2.140625 -3.125 L 2.140625 -1.046875 C 2.140625 -0.703125 2.207031 -0.472656 2.34375 -0.359375 C 2.476562 -0.234375 2.722656 -0.171875 3.078125 -0.171875 L 3.078125 0 L 0.1875 0 L 0.1875 -0.171875 C 0.550781 -0.171875 0.800781 -0.234375 0.9375 -0.359375 Z M 2.734375 -3.453125 C 3.203125 -3.453125 3.582031 -3.582031 3.875 -3.84375 C 4.164062 -4.101562 4.3125 -4.441406 4.3125 -4.859375 C 4.3125 -5.273438 4.191406 -5.613281 3.953125 -5.875 C 3.710938 -6.15625 3.410156 -6.296875 3.046875 -6.296875 C 2.648438 -6.296875 2.347656 -6.253906 2.140625 -6.171875 L 2.140625 -3.453125 Z M 2.734375 -3.453125 "/></g></g></g><g fill="#ffffff" fill-opacity="1"><g transform="translate(187.297213, 27.633847)"><g><path d="M 1.28125 -0.875 C 0.632812 -1.5625 0.3125 -2.390625 0.3125 -3.359375 C 0.3125 -4.304688 0.632812 -5.113281 1.28125 -5.78125 C 1.925781 -6.445312 2.710938 -6.78125 3.640625 -6.78125 C 4.566406 -6.78125 5.351562 -6.445312 6 -5.78125 C 6.644531 -5.113281 6.96875 -4.304688 6.96875 -3.359375 C 6.96875 -2.390625 6.644531 -1.5625 6 -0.875 C 5.351562 -0.1875 4.566406 0.15625 3.640625 0.15625 C 2.710938 0.15625 1.925781 -0.1875 1.28125 -0.875 Z M 2.046875 -1.078125 C 2.429688 -0.472656 2.960938 -0.171875 3.640625 -0.171875 C 4.316406 -0.171875 4.84375 -0.472656 5.21875 -1.078125 C 5.582031 -1.660156 5.765625 -2.421875 5.765625 -3.359375 C 5.765625 -4.296875 5.582031 -5.039062 5.21875 -5.59375 C 4.832031 -6.164062 4.304688 -6.453125 3.640625 -6.453125 C 2.960938 -6.453125 2.429688 -6.164062 2.046875 -5.59375 C 1.679688 -5.03125 1.5 -4.285156 1.5 -3.359375 C 1.5 -2.421875 1.679688 -1.660156 2.046875 -1.078125 Z M 2.046875 -1.078125 "/></g></g></g><g fill="#ffffff" fill-opacity="1"><g transform="translate(194.569508, 27.633847)"><g><path d="M 0.578125 -6.203125 C 0.453125 -6.367188 0.257812 -6.453125 0 -6.453125 L 0 -6.625 L 2.453125 -6.625 L 2.453125 -6.453125 C 2.015625 -6.453125 1.796875 -6.332031 1.796875 -6.09375 C 1.796875 -5.988281 1.851562 -5.769531 1.96875 -5.4375 L 3.328125 -1.59375 L 4.4375 -4.6875 L 4.1875 -5.40625 C 4.039062 -5.800781 3.921875 -6.0625 3.828125 -6.1875 C 3.671875 -6.363281 3.445312 -6.453125 3.15625 -6.453125 L 3.15625 -6.625 L 5.734375 -6.625 L 5.734375 -6.453125 C 5.285156 -6.453125 5.0625 -6.328125 5.0625 -6.078125 C 5.0625 -5.921875 5.113281 -5.703125 5.21875 -5.421875 L 6.546875 -1.59375 L 7.890625 -5.453125 C 7.960938 -5.679688 8 -5.851562 8 -5.96875 C 8 -6.289062 7.757812 -6.453125 7.28125 -6.453125 L 7.296875 -6.625 L 9.265625 -6.625 L 9.265625 -6.453125 C 8.992188 -6.453125 8.796875 -6.363281 8.671875 -6.1875 C 8.585938 -6.09375 8.476562 -5.84375 8.34375 -5.4375 L 6.4375 0.15625 L 6.203125 0.15625 L 4.671875 -4.046875 L 3.171875 0.15625 L 2.9375 0.15625 L 0.953125 -5.40625 C 0.804688 -5.8125 0.679688 -6.078125 0.578125 -6.203125 Z M 0.578125 -6.203125 "/></g></g></g><g fill="#ffffff" fill-opacity="1"><g transform="translate(115.646341, 53.378259)"><g><path d="M 4.90625 -0.171875 C 5.601562 -0.171875 6.148438 -0.351562 6.546875 -0.71875 C 6.953125 -1.082031 7.15625 -1.578125 7.15625 -2.203125 L 7.15625 -16.28125 L 6.96875 -16.28125 C 6.039062 -16.28125 5.25 -16.179688 4.59375 -15.984375 C 3.945312 -15.785156 3.410156 -15.53125 2.984375 -15.21875 C 2.554688 -14.914062 2.210938 -14.59375 1.953125 -14.25 C 1.703125 -13.90625 1.515625 -13.570312 1.390625 -13.25 C 1.273438 -12.9375 1.203125 -12.679688 1.171875 -12.484375 L 1.109375 -12.140625 L 0.953125 -12.21875 L 1.609375 -16.453125 L 16.65625 -16.453125 L 17.296875 -12.21875 L 17.140625 -12.140625 L 17.09375 -12.484375 C 17.050781 -12.679688 16.96875 -12.9375 16.84375 -13.25 C 16.726562 -13.570312 16.539062 -13.90625 16.28125 -14.25 C 16.03125 -14.59375 15.691406 -14.914062 15.265625 -15.21875 C 14.835938 -15.53125 14.296875 -15.785156 13.640625 -15.984375 C 12.992188 -16.179688 12.207031 -16.28125 11.28125 -16.28125 L 11.109375 -16.28125 L 11.109375 -2.203125 C 11.109375 -1.578125 11.304688 -1.082031 11.703125 -0.71875 C 12.109375 -0.351562 12.660156 -0.171875 13.359375 -0.171875 L 13.359375 0 L 4.90625 0 Z M 4.90625 -0.171875 "/></g></g></g><g fill="#ffffff" fill-opacity="1"><g transform="translate(133.886201, 53.378259)"><g><path d="M 0.953125 -0.171875 C 1.671875 -0.171875 2.222656 -0.332031 2.609375 -0.65625 C 3.003906 -0.976562 3.203125 -1.492188 3.203125 -2.203125 L 3.203125 -14.265625 C 3.203125 -14.710938 3.125 -15.066406 2.96875 -15.328125 C 2.820312 -15.585938 2.632812 -15.785156 2.40625 -15.921875 C 2.1875 -16.066406 1.960938 -16.160156 1.734375 -16.203125 C 1.503906 -16.253906 1.320312 -16.28125 1.1875 -16.28125 L 0.953125 -16.28125 L 0.953125 -16.453125 L 9.21875 -16.453125 C 10 -16.453125 10.742188 -16.375 11.453125 -16.21875 C 12.171875 -16.070312 12.8125 -15.828125 13.375 -15.484375 C 13.9375 -15.148438 14.382812 -14.710938 14.71875 -14.171875 C 15.050781 -13.628906 15.21875 -12.976562 15.21875 -12.21875 C 15.21875 -11.375 15.007812 -10.660156 14.59375 -10.078125 C 14.1875 -9.503906 13.648438 -9.046875 12.984375 -8.703125 C 12.316406 -8.367188 11.597656 -8.140625 10.828125 -8.015625 C 11.734375 -7.960938 12.457031 -7.8125 13 -7.5625 C 13.550781 -7.320312 14.003906 -6.921875 14.359375 -6.359375 C 14.710938 -5.804688 15.039062 -5.039062 15.34375 -4.0625 C 15.675781 -3.050781 16 -2.257812 16.3125 -1.6875 C 16.632812 -1.125 16.992188 -0.726562 17.390625 -0.5 C 17.796875 -0.28125 18.285156 -0.171875 18.859375 -0.171875 L 18.859375 0 L 15.421875 0 C 14.710938 0 14.023438 -0.296875 13.359375 -0.890625 C 12.691406 -1.492188 12.054688 -2.550781 11.453125 -4.0625 C 11.171875 -4.800781 10.960938 -5.414062 10.828125 -5.90625 C 10.703125 -6.394531 10.585938 -6.78125 10.484375 -7.0625 C 10.378906 -7.351562 10.25 -7.554688 10.09375 -7.671875 C 9.9375 -7.796875 9.6875 -7.859375 9.34375 -7.859375 L 7.15625 -7.859375 L 7.15625 -2.15625 C 7.15625 -1.476562 7.316406 -0.976562 7.640625 -0.65625 C 7.972656 -0.332031 8.492188 -0.171875 9.203125 -0.171875 L 9.203125 0 L 0.953125 0 Z M 9.21875 -8.0625 C 9.675781 -8.0625 10.0625 -8.242188 10.375 -8.609375 C 10.6875 -8.984375 10.921875 -9.484375 11.078125 -10.109375 C 11.242188 -10.742188 11.328125 -11.445312 11.328125 -12.21875 C 11.328125 -13 11.242188 -13.691406 11.078125 -14.296875 C 10.921875 -14.910156 10.6875 -15.394531 10.375 -15.75 C 10.0625 -16.101562 9.675781 -16.28125 9.21875 -16.28125 L 7.15625 -16.28125 L 7.15625 -8.0625 Z M 9.21875 -8.0625 "/></g></g></g><g fill="#ffffff" fill-opacity="1"><g transform="translate(153.690568, 53.378259)"><g><path d="M 9.8125 0.140625 C 9.007812 0.140625 8.210938 0.00390625 7.421875 -0.265625 C 6.640625 -0.546875 5.921875 -0.929688 5.265625 -1.421875 C 4.617188 -1.921875 4.097656 -2.503906 3.703125 -3.171875 C 3.316406 -3.847656 3.125 -4.570312 3.125 -5.34375 L 3.125 -14.265625 C 3.125 -14.898438 2.929688 -15.394531 2.546875 -15.75 C 2.171875 -16.101562 1.640625 -16.28125 0.953125 -16.28125 L 0.953125 -16.453125 L 9.1875 -16.453125 L 9.1875 -16.28125 C 8.488281 -16.28125 7.953125 -16.101562 7.578125 -15.75 C 7.210938 -15.40625 7.03125 -14.953125 7.03125 -14.390625 L 7.03125 -6.796875 C 7.03125 -6.242188 7.054688 -5.660156 7.109375 -5.046875 C 7.171875 -4.441406 7.269531 -3.847656 7.40625 -3.265625 C 7.550781 -2.679688 7.753906 -2.148438 8.015625 -1.671875 C 8.285156 -1.191406 8.625 -0.804688 9.03125 -0.515625 C 9.445312 -0.234375 9.957031 -0.09375 10.5625 -0.09375 C 10.925781 -0.09375 11.34375 -0.144531 11.8125 -0.25 C 12.289062 -0.363281 12.769531 -0.539062 13.25 -0.78125 C 13.738281 -1.019531 14.1875 -1.335938 14.59375 -1.734375 C 15.007812 -2.140625 15.34375 -2.625 15.59375 -3.1875 C 15.84375 -3.757812 15.96875 -4.4375 15.96875 -5.21875 L 15.96875 -14.359375 C 15.96875 -14.953125 15.773438 -15.421875 15.390625 -15.765625 C 15.003906 -16.109375 14.46875 -16.28125 13.78125 -16.28125 L 13.78125 -16.453125 L 18.296875 -16.453125 L 18.296875 -16.28125 C 17.628906 -16.28125 17.101562 -16.109375 16.71875 -15.765625 C 16.332031 -15.421875 16.140625 -14.953125 16.140625 -14.359375 L 16.140625 -5.21875 C 16.140625 -4.03125 15.851562 -3.039062 15.28125 -2.25 C 14.707031 -1.457031 13.9375 -0.859375 12.96875 -0.453125 C 12.007812 -0.0546875 10.957031 0.140625 9.8125 0.140625 Z M 9.8125 0.140625 "/></g></g></g><g fill="#ffffff" fill-opacity="1"><g transform="translate(172.922554, 53.378259)"><g><path d="M 9.3125 0 C 8.207031 0 7.164062 -0.195312 6.1875 -0.59375 C 5.207031 -1 4.332031 -1.5625 3.5625 -2.28125 C 2.800781 -3.007812 2.191406 -3.851562 1.734375 -4.8125 C 1.273438 -5.769531 1.015625 -6.800781 0.953125 -7.90625 L 0.953125 -8.859375 C 1.015625 -9.898438 1.257812 -10.878906 1.6875 -11.796875 C 2.113281 -12.710938 2.671875 -13.519531 3.359375 -14.21875 L 3.421875 -14.28125 C 4.210938 -15.070312 5.113281 -15.675781 6.125 -16.09375 C 7.132812 -16.507812 8.195312 -16.71875 9.3125 -16.71875 C 10.289062 -16.71875 11.226562 -16.554688 12.125 -16.234375 C 13.03125 -15.960938 13.6875 -15.859375 14.09375 -15.921875 C 14.507812 -15.984375 14.738281 -16.191406 14.78125 -16.546875 L 14.953125 -16.546875 L 14.953125 -12.046875 L 14.78125 -12.046875 C 14.75 -12.742188 14.578125 -13.367188 14.265625 -13.921875 C 13.960938 -14.484375 13.550781 -14.957031 13.03125 -15.34375 C 12.519531 -15.738281 11.941406 -16.035156 11.296875 -16.234375 C 10.660156 -16.441406 10 -16.546875 9.3125 -16.546875 C 9.070312 -16.546875 8.765625 -16.492188 8.390625 -16.390625 C 8.023438 -16.296875 7.640625 -16.09375 7.234375 -15.78125 C 6.828125 -15.476562 6.441406 -15.023438 6.078125 -14.421875 C 5.710938 -13.816406 5.414062 -13.023438 5.1875 -12.046875 C 4.957031 -11.066406 4.84375 -9.835938 4.84375 -8.359375 C 4.84375 -6.898438 4.957031 -5.675781 5.1875 -4.6875 C 5.414062 -3.695312 5.710938 -2.898438 6.078125 -2.296875 C 6.441406 -1.691406 6.828125 -1.238281 7.234375 -0.9375 C 7.640625 -0.632812 8.023438 -0.429688 8.390625 -0.328125 C 8.765625 -0.222656 9.070312 -0.171875 9.3125 -0.171875 C 10.382812 -0.171875 11.328125 -0.390625 12.140625 -0.828125 C 12.953125 -1.265625 13.59375 -1.890625 14.0625 -2.703125 C 14.53125 -3.515625 14.769531 -4.46875 14.78125 -5.5625 L 14.78125 -5.828125 L 14.953125 -5.828125 L 14.953125 -0.171875 L 14.78125 -0.171875 C 14.738281 -0.554688 14.5 -0.769531 14.0625 -0.8125 C 13.632812 -0.851562 12.988281 -0.75 12.125 -0.5 C 11.226562 -0.164062 10.289062 0 9.3125 0 Z M 9.3125 0 "/></g></g></g><g fill="#ffffff" fill-opacity="1"><g transform="translate(188.81566, 53.378259)"><g><path d="M 14.6875 -4.453125 C 15.113281 -2.910156 15.6875 -1.8125 16.40625 -1.15625 C 17.125 -0.5 17.910156 -0.171875 18.765625 -0.171875 L 18.765625 0 L 14.953125 0 C 14.484375 0 13.972656 -0.15625 13.421875 -0.46875 C 12.878906 -0.78125 12.359375 -1.265625 11.859375 -1.921875 C 11.359375 -2.585938 10.9375 -3.429688 10.59375 -4.453125 C 10.300781 -5.328125 9.988281 -6.078125 9.65625 -6.703125 C 9.332031 -7.328125 8.96875 -7.769531 8.5625 -8.03125 C 8.164062 -8.300781 7.695312 -8.34375 7.15625 -8.15625 L 7.15625 -2.203125 C 7.15625 -1.578125 7.351562 -1.082031 7.75 -0.71875 C 8.15625 -0.351562 8.707031 -0.171875 9.40625 -0.171875 L 9.40625 0 L 0.953125 0 L 0.953125 -0.171875 C 1.648438 -0.171875 2.195312 -0.351562 2.59375 -0.71875 C 3 -1.082031 3.203125 -1.578125 3.203125 -2.203125 L 3.203125 -14.265625 C 3.203125 -14.898438 3 -15.394531 2.59375 -15.75 C 2.195312 -16.101562 1.648438 -16.28125 0.953125 -16.28125 L 0.953125 -16.453125 L 9.40625 -16.453125 L 9.40625 -16.28125 C 8.707031 -16.28125 8.15625 -16.101562 7.75 -15.75 C 7.351562 -15.394531 7.15625 -14.898438 7.15625 -14.265625 L 7.15625 -8.609375 L 12.578125 -14.265625 C 12.984375 -14.679688 13.234375 -15.019531 13.328125 -15.28125 C 13.429688 -15.539062 13.4375 -15.738281 13.34375 -15.875 C 13.257812 -16.019531 13.132812 -16.117188 12.96875 -16.171875 C 12.800781 -16.234375 12.65625 -16.269531 12.53125 -16.28125 L 12.3125 -16.28125 L 12.3125 -16.453125 L 16.828125 -16.453125 L 16.828125 -16.28125 L 16.53125 -16.28125 C 16.3125 -16.269531 16.007812 -16.207031 15.625 -16.09375 C 15.25 -15.988281 14.816406 -15.789062 14.328125 -15.5 C 13.847656 -15.21875 13.34375 -14.804688 12.8125 -14.265625 L 7.15625 -8.34375 C 7.820312 -8.90625 8.53125 -9.203125 9.28125 -9.234375 C 10.03125 -9.273438 10.765625 -9.101562 11.484375 -8.71875 C 12.210938 -8.332031 12.859375 -7.769531 13.421875 -7.03125 C 13.984375 -6.300781 14.40625 -5.441406 14.6875 -4.453125 Z M 14.6875 -4.453125 "/></g></g></g><g fill="#ffffff" fill-opacity="1"><g transform="translate(208.524636, 53.378259)"><g><path d="M 0.953125 -0.171875 C 1.648438 -0.171875 2.195312 -0.351562 2.59375 -0.71875 C 3 -1.082031 3.203125 -1.578125 3.203125 -2.203125 L 3.203125 -14.265625 C 3.203125 -14.898438 3 -15.394531 2.59375 -15.75 C 2.195312 -16.101562 1.648438 -16.28125 0.953125 -16.28125 L 0.953125 -16.453125 L 9.40625 -16.453125 L 9.40625 -16.28125 C 8.707031 -16.28125 8.15625 -16.101562 7.75 -15.75 C 7.351562 -15.394531 7.15625 -14.898438 7.15625 -14.265625 L 7.15625 -2.203125 C 7.15625 -1.578125 7.351562 -1.082031 7.75 -0.71875 C 8.15625 -0.351562 8.707031 -0.171875 9.40625 -0.171875 L 9.40625 0 L 0.953125 0 Z M 0.953125 -0.171875 "/></g></g></g><g fill="#ffffff" fill-opacity="1"><g transform="translate(218.884729, 53.378259)"><g><path d="M 3.59375 -13.6875 L 3.28125 -14.015625 L 3.28125 -2.09375 C 3.289062 -1.664062 3.378906 -1.320312 3.546875 -1.0625 C 3.722656 -0.800781 3.929688 -0.609375 4.171875 -0.484375 C 4.421875 -0.367188 4.648438 -0.285156 4.859375 -0.234375 C 5.078125 -0.191406 5.242188 -0.171875 5.359375 -0.171875 L 5.453125 -0.171875 L 5.453125 0 L 0.953125 0 L 0.953125 -0.171875 L 1.046875 -0.171875 C 1.148438 -0.171875 1.3125 -0.191406 1.53125 -0.234375 C 1.757812 -0.285156 1.988281 -0.367188 2.21875 -0.484375 C 2.457031 -0.609375 2.660156 -0.800781 2.828125 -1.0625 C 3.003906 -1.320312 3.097656 -1.664062 3.109375 -2.09375 L 3.109375 -13.953125 C 3.097656 -14.765625 2.90625 -15.351562 2.53125 -15.71875 C 2.15625 -16.082031 1.628906 -16.265625 0.953125 -16.265625 L 0.953125 -16.453125 L 6.3125 -16.453125 L 15.65625 -5.875 L 15.65625 -14.34375 C 15.644531 -14.851562 15.523438 -15.238281 15.296875 -15.5 C 15.078125 -15.769531 14.828125 -15.957031 14.546875 -16.0625 C 14.265625 -16.175781 14.015625 -16.238281 13.796875 -16.25 C 13.585938 -16.269531 13.484375 -16.28125 13.484375 -16.28125 L 13.484375 -16.453125 L 18 -16.453125 L 18 -16.265625 C 18 -16.265625 17.890625 -16.257812 17.671875 -16.25 C 17.460938 -16.238281 17.21875 -16.175781 16.9375 -16.0625 C 16.65625 -15.957031 16.398438 -15.769531 16.171875 -15.5 C 15.953125 -15.238281 15.835938 -14.851562 15.828125 -14.34375 L 15.828125 0 L 15.640625 0 Z M 3.59375 -13.6875 "/></g></g></g><g fill="#ffffff" fill-opacity="1"><g transform="translate(237.830531, 53.378259)"><g><path d="M 9.296875 0 C 8.191406 0 7.148438 -0.195312 6.171875 -0.59375 C 5.203125 -1 4.332031 -1.5625 3.5625 -2.28125 C 2.800781 -3.007812 2.191406 -3.851562 1.734375 -4.8125 C 1.273438 -5.769531 1.015625 -6.800781 0.953125 -7.90625 L 0.953125 -8.859375 C 1.066406 -10.941406 1.898438 -12.769531 3.453125 -14.34375 C 4.242188 -15.101562 5.140625 -15.6875 6.140625 -16.09375 C 7.148438 -16.507812 8.203125 -16.71875 9.296875 -16.71875 C 10.265625 -16.71875 11.207031 -16.554688 12.125 -16.234375 C 13.03125 -15.960938 13.6875 -15.859375 14.09375 -15.921875 C 14.507812 -15.984375 14.734375 -16.191406 14.765625 -16.546875 L 14.9375 -16.546875 L 14.9375 -12.046875 L 14.765625 -12.046875 C 14.734375 -13.066406 14.441406 -13.910156 13.890625 -14.578125 C 13.335938 -15.242188 12.539062 -15.753906 11.5 -16.109375 C 11 -16.265625 10.550781 -16.367188 10.15625 -16.421875 C 9.757812 -16.472656 9.472656 -16.5 9.296875 -16.5 C 9.054688 -16.5 8.75 -16.445312 8.375 -16.34375 C 8.007812 -16.238281 7.625 -16.035156 7.21875 -15.734375 C 6.8125 -15.441406 6.425781 -15 6.0625 -14.40625 C 5.695312 -13.8125 5.398438 -13.023438 5.171875 -12.046875 C 4.941406 -11.066406 4.828125 -9.835938 4.828125 -8.359375 C 4.828125 -6.898438 4.941406 -5.675781 5.171875 -4.6875 C 5.398438 -3.695312 5.695312 -2.90625 6.0625 -2.3125 C 6.425781 -1.726562 6.8125 -1.285156 7.21875 -0.984375 C 7.625 -0.679688 8.007812 -0.476562 8.375 -0.375 C 8.75 -0.28125 9.054688 -0.234375 9.296875 -0.234375 C 9.679688 -0.234375 10.132812 -0.289062 10.65625 -0.40625 C 11.1875 -0.519531 11.628906 -0.648438 11.984375 -0.796875 L 11.984375 -5.28125 C 11.972656 -5.925781 11.765625 -6.410156 11.359375 -6.734375 C 10.960938 -7.066406 10.453125 -7.234375 9.828125 -7.234375 L 9.828125 -7.40625 L 18.0625 -7.40625 L 18.0625 -7.234375 C 17.394531 -7.234375 16.867188 -7.0625 16.484375 -6.71875 C 16.109375 -6.375 15.910156 -5.90625 15.890625 -5.3125 L 15.890625 -0.171875 L 15.71875 -0.171875 C 15.695312 -0.410156 15.503906 -0.582031 15.140625 -0.6875 C 14.785156 -0.789062 14.335938 -0.828125 13.796875 -0.796875 C 13.253906 -0.765625 12.695312 -0.664062 12.125 -0.5 C 11.207031 -0.164062 10.265625 0 9.296875 0 Z M 9.296875 0 "/></g></g></g></svg>